<svg width="680" height="300" viewBox="0 0 680 300" xmlns="http://www.w3.org/2000/svg">

<g transform="translate(150, 150)">

  <path d="M0 -90 L75 -65 L75 10 Q75 60 0 88 Q-75 60 -75 10 L-75 -65 Z"
        fill="#57068C" opacity="0.08" stroke="none"/>
  <path d="M0 -90 L75 -65 L75 10 Q75 60 0 88 Q-75 60 -75 10 L-75 -65 Z"
        fill="none" stroke="#57068C" stroke-width="2.5" stroke-linejoin="round"/>

  <path d="M0 -72 L56 -52 L56 6 Q56 46 0 68 Q-56 46 -56 6 L-56 -52 Z"
        fill="none" stroke="#5B92E5" stroke-width="1" stroke-linejoin="round" opacity="0.35"/>

  <line x1="0" y1="-30" x2="-22" y2="2" stroke="#5B92E5" stroke-width="1.2" opacity="0.35"/>
  <line x1="0" y1="-30" x2="22" y2="2" stroke="#5B92E5" stroke-width="1.2" opacity="0.35"/>
  <line x1="-12" y1="10" x2="12" y2="10" stroke="#5B92E5" stroke-width="1.2" opacity="0.35"/>

  <circle cx="0" cy="-40" r="12" fill="#5B92E5"/>
  <circle cx="-26" cy="10" r="12" fill="#5B92E5"/>
  <circle cx="26" cy="10" r="12" fill="#5B92E5"/>

  <text x="110" y="-10" text-anchor="start" font-family="DM Sans, Arial, sans-serif" font-size="38" font-weight="700" letter-spacing="-0.02em">
    <tspan fill="#57068C">Safe</tspan><tspan fill="#1A0A2E">Council</tspan>
  </text>

  <text x="112" y="18" text-anchor="start" font-family="DM Sans, Arial, sans-serif" font-size="12" font-weight="400" letter-spacing="0.05em" fill="#5C4D6E">
    MULTI-AGENT AI SAFETY EVALUATOR
  </text>

  <line x1="112" y1="28" x2="390" y2="28" stroke="#5B92E5" stroke-width="1" opacity="0.3"/>
</g>

</svg>
